<?xml version="1.0" encoding="UTF-8"?>
<svg width="200" height="200" viewBox="0 0 200 200" xmlns="http://www.w3.org/2000/svg">
  <!-- Ladybug Body -->
  <circle cx="100" cy="100" r="50" fill="#e53935" />
  
  <!-- Head -->
  <circle cx="60" cy="75" r="20" fill="#212121" />
  
  <!-- Spots -->
  <circle cx="80" cy="70" r="8" fill="#212121" />
  <circle cx="120" cy="70" r="8" fill="#212121" />
  <circle cx="100" cy="85" r="8" fill="#212121" />
  <circle cx="75" cy="110" r="8" fill="#212121" />
  <circle cx="125" cy="110" r="8" fill="#212121" />
  <circle cx="100" cy="130" r="8" fill="#212121" />
  
  <!-- Dividing Line -->
  <line x1="100" y1="50" x2="100" y2="150" stroke="#212121" stroke-width="2" />
  
  <!-- Legs -->
  <line x1="75" y1="80" x2="50" y2="60" stroke="#212121" stroke-width="3" />
  <line x1="75" y1="90" x2="45" y2="80" stroke="#212121" stroke-width="3" />
  <line x1="75" y1="110" x2="45" y2="120" stroke="#212121" stroke-width="3" />
  
  <line x1="125" y1="80" x2="150" y2="60" stroke="#212121" stroke-width="3" />
  <line x1="125" y1="90" x2="155" y2="80" stroke="#212121" stroke-width="3" />
  <line x1="125" y1="110" x2="155" y2="120" stroke="#212121" stroke-width="3" />
  
  <!-- Antennas -->
  <line x1="55" y1="60" x2="45" y2="40" stroke="#212121" stroke-width="2" />
  <line x1="65" y1="60" x2="75" y2="40" stroke="#212121" stroke-width="2" />
  <circle cx="45" cy="40" r="3" fill="#212121" />
  <circle cx="75" cy="40" r="3" fill="#212121" />
  
  <!-- Eyes -->
  <circle cx="55" cy="70" r="3" fill="white" />
  <circle cx="65" cy="70" r="3" fill="white" />
</svg>
